# xmcd
#
# Track frame offsets:
#	150
#	18037
#	31104
#	45917
#	60093
#	71344
#	84599
#	101570
#
# Disc length: 1716
#
# Revision: 1
# Processed by: cddbd v1.5.1PL0 Copyright (c) Steve Scherf et al.
# Submitted via: EasyCDDAExtractor 4.6.0.1
# Normalized: r0:TDELIM( - )
#
DISCID=4a06b208
DTITLE=New Country Vol. 15 - February/March 2002
DYEAR=2002
DGENRE=country
TTITLE0=Ronnie Miller - I'll never say never again
TTITLE1=Susan Jayne - I'm gonna miss that man
TTITLE2=Jim Arp - Last train to nowhere
TTITLE3=Susan Jayne - One Mississippi
TTITLE4=Neil Wyatt - Raisin' hell always comes with a cost
TTITLE5=Cliff Beach - Ran out of reasons
TTITLE6=Eddie Collins - The Hunger
TTITLE7=Joe Henderson - Uncle Sam
EXTD=
EXTT0=
EXTT1=
EXTT2=
EXTT3=
EXTT4=
EXTT5=
EXTT6=
EXTT7=
PLAYORDER=
